<svg width="213" height="159" viewBox="0 0 213 159" fill="none" xmlns="http://www.w3.org/2000/svg">
<rect x="28.834" y="23.5898" width="151" height="99" rx="17" fill="white" stroke="#AA8E64" stroke-opacity="0.2" stroke-width="1.2" stroke-linecap="round" stroke-dasharray="6 4"/>
<rect x="33.834" y="109.59" width="141" height="26.668" fill="url(#paint0_linear_250_6229)"/>
<g clip-path="url(#clip0_250_6229)">
<path d="M119.147 52.9732C121.17 53.5512 123.733 54.6491 123.558 57.1936C123.519 57.7457 123.26 58.4077 122.976 58.8791C122.765 59.2278 122.346 59.5927 122.193 59.8866C122.151 59.9641 122.119 60.1481 122.148 60.174C122.18 60.203 122.81 60.3742 122.963 60.4387C126.156 61.8369 125.347 65.2661 123.085 67.1357C123.388 67.3392 123.753 67.4651 124.056 67.6685C125.172 68.4273 125.817 69.8416 125.504 71.1881C125.338 71.905 124.836 72.5992 124.315 73.0997C124.315 73.2838 125.443 74.4753 125.661 74.6658C126.671 75.5376 127.23 75.3277 128.336 75.754C128.943 75.9897 129.515 76.4224 130.084 76.7356C131.391 76.064 132.698 75.7669 134.153 76.1285C135.166 76.3804 135.872 76.8228 136.419 77.7237C136.466 77.8012 136.55 78.208 136.681 77.9207C136.812 77.6333 137.304 76.9616 137.521 76.7001C138.173 75.9187 139.09 75.2309 140.104 75.0468C142.277 74.6529 145.083 76.0252 144.831 78.5923C144.744 79.4609 144.214 80.294 143.75 81.0076L140.436 85.0503C140.388 85.2731 141.312 86.7004 141.51 86.9748C142.823 88.8057 144.549 89.7486 143.475 92.3802C142.721 94.2272 140.698 95.451 138.713 95.1087C137.544 94.9085 136.633 93.6298 136.07 92.6644C135.696 93.1778 135.335 93.8656 134.852 94.2756C133.264 95.6254 130.4 95.3961 129.039 93.801C128.249 94.5275 126.99 94.9667 125.942 95.1216C124.015 95.4058 121.944 94.8343 120.371 93.6524C120.237 93.5491 119.994 93.2036 119.857 93.2327C119.313 93.8074 118.728 94.3467 117.993 94.6696C116.082 95.5059 114.372 94.7471 113.052 93.2779C113.004 93.2262 112.659 92.6676 112.586 92.7548C111.512 95.7675 106.865 95.6867 105.414 93.0389H105.321C104.407 93.9269 103.346 94.5856 102.109 94.9085C99.9803 95.4639 97.3147 95.028 95.6656 93.5136C95.2725 94.1239 94.5278 94.5856 93.8406 94.7923C92.3641 95.2379 90.6382 95.0732 89.4716 93.9883H89.3917C89.1232 94.2272 88.7813 94.5017 88.4649 94.6664C87.391 95.2314 85.8089 95.3897 84.6488 95.0764C83.69 94.8181 82.9197 94.1788 82.2134 93.5104C82.1558 93.7751 81.8171 94.0948 81.6061 94.2692C80.1423 95.4801 77.7421 95.5995 76.2591 94.3628C75.6934 93.8914 75.2747 93.1681 74.8528 92.5643C74.6099 92.9647 74.4821 93.4103 74.1913 93.7913C72.9576 95.4026 70.3528 95.6641 68.6813 94.6341C67.0097 93.604 66.7508 92.0831 66.8339 90.2426C66.9106 88.5667 67.1695 86.8844 67.3038 85.2215C67.5243 82.5059 67.5914 79.8871 67.406 77.1715C67.3357 76.135 67.0353 75.2664 67.3773 74.2137C68.4384 70.9524 75.2012 70.6295 75.2779 74.7594C75.4217 74.7465 75.4249 74.6206 75.4633 74.5205C75.5815 74.1944 75.6583 73.8715 75.8245 73.5582C76.975 71.3754 79.6629 70.9137 81.7755 71.8436L82.7823 72.4862L82.5969 71.5821C82.5298 69.9224 82.0408 68.2045 81.9321 66.5706C81.8011 64.588 82.99 63.9067 84.7063 63.587C86.8988 63.1769 89.1488 62.9735 91.3541 62.6312C91.7728 62.5667 92.1947 62.4084 92.6229 62.444C92.1851 61.9919 91.6098 61.5624 91.2167 61.0716C89.4492 58.8856 89.3757 56.0989 90.4496 53.5706C91.6545 50.7388 93.6585 49.4407 96.6148 48.9079C98.5356 48.5624 100.453 48.6173 102.412 48.6076C102.499 48.5818 103.125 47.4225 103.272 47.203C103.979 46.1439 104.857 45.1816 105.906 44.4648C108.67 42.5758 112.32 42.0591 113.832 45.7112C113.918 45.9211 114.212 47.0028 114.327 47.0028C114.944 46.7606 115.58 46.5184 116.226 46.3699C117.571 46.0534 119.847 45.779 120.844 46.9608C122.052 48.3913 120.975 50.5418 120.042 51.8334C119.754 52.2338 119.374 52.547 119.157 52.9765L119.147 52.9732Z" fill="#FEFCEE"/>
<path d="M104.119 97.7952C108.13 97.6886 112.25 97.905 116.194 98.3377C117.175 98.4474 118.405 98.4862 119.355 98.7413C120.077 98.935 120.569 99.5227 120.16 100.269C119.671 101.16 118.719 100.708 117.967 100.617C108.12 99.4097 97.8835 99.7261 88.1579 101.757C87.4931 101.654 87.0776 101.17 87.1767 100.472C87.215 100.201 87.5762 99.7939 87.8255 99.71C89.0112 99.3096 90.5102 99.2805 91.7279 98.9157C95.8412 98.2569 99.9577 97.9082 104.119 97.7952Z" fill="#4B2407"/>
<path d="M132.065 73.794C131.96 73.9005 131.544 73.9393 131.391 73.8908C131.209 73.8359 130.729 73.1837 130.442 73.1449C129.918 73.0481 129.438 73.4032 128.943 73.4355C127.524 73.5259 128.681 72.0019 128.614 71.398C128.547 70.7942 127.438 70.4842 127.687 69.6091C127.834 69.0925 129.266 69.4316 129.736 69.0279C130.132 68.6856 130.244 67.5942 130.908 67.5942C131.781 67.5942 131.535 69.3637 132.107 69.664C132.561 69.903 133.494 69.9159 133.58 70.5456C133.705 71.4691 132.411 71.3431 132.283 71.7887C132.177 72.1601 132.331 72.8608 132.27 73.2902C132.257 73.3677 132.101 73.7617 132.065 73.794Z" fill="#4B2407"/>
<path d="M81.99 57.3452C82.2105 57.2968 82.4918 57.4421 82.6739 57.5713C82.9904 57.8005 84.2752 59.0986 84.5021 59.4183C85.0838 60.2417 84.3199 61.0037 83.4857 60.6324C83.0351 60.1125 81.2741 58.7466 81.3763 58.0621C81.4211 57.7715 81.6928 57.4098 81.9868 57.342L81.99 57.3452Z" fill="#4B2407"/>
<path d="M85.4604 55.7372C85.7736 55.6661 86.0868 55.7436 86.285 56.0052C86.5406 56.341 87.0009 57.6035 87.1575 58.0588C87.3141 58.5141 87.4803 58.9533 87.0392 59.3182C86.6781 59.612 86.2178 59.5829 85.9142 59.2213L84.9714 56.8609C84.818 56.4346 84.9842 55.8437 85.4604 55.7372Z" fill="#4B2407"/>
<path d="M124.584 75.7055C124.283 75.8282 123.941 75.9057 123.644 76.0381C122.647 76.4837 121.573 77.1166 120.831 77.9335C120.716 78.0595 120.694 78.3146 120.457 78.2661C120.087 75.2632 117.891 73.0739 115.047 72.3215C112.929 71.7674 111.222 71.5314 108.797 72.6702C107.202 73.5744 105.989 74.74 104.186 75.0403C103.905 75.0888 103.525 75.1663 103.25 75.1437C102.489 75.0856 101.761 74.6303 101.332 74.0038C101.866 73.9134 102.329 73.4969 101.94 72.9641C101.62 72.5282 101.051 72.7187 100.588 72.6702C100.182 71.5885 100.875 70.6327 101.828 70.1968C103.464 69.4444 105.305 69.7609 106.98 69.3411C108.054 69.0731 109.524 68.2788 110.236 67.4231C110.476 67.1357 111.048 66.2703 110.972 65.9248C110.94 65.7827 110.687 65.4405 110.55 65.3985C109.898 65.2015 109.639 66.0734 109.297 66.477C108.795 67.0679 107.967 67.5587 107.235 67.8041C105.992 68.2207 104.659 68.127 103.391 68.324L102.921 65.2919C103.215 65.2726 103.525 65.3178 103.816 65.2952C103.979 65.2822 104.113 65.2015 104.276 65.1918C105.024 65.1466 105.784 65.2467 106.51 64.9884C107.012 64.7042 106.941 64.0165 106.481 63.7323C106.091 63.4934 105.465 63.7517 105.033 63.7807C102.716 63.9325 99.7119 63.587 97.4587 62.9961C95.5186 62.4859 93.438 61.5624 92.2331 59.8962L94.5534 60.7229C98.6795 61.7949 103.486 62.2889 107.357 60.1642C107.504 60.0835 107.737 59.851 107.855 59.8155C108.21 59.7122 108.674 59.977 108.808 59.357C108.942 58.737 107.939 57.7683 107.421 57.5713C106.903 57.3744 106.433 57.3808 106.382 58.0428C106.353 58.4335 106.446 58.5949 106.794 58.7564C106.903 58.8081 106.858 58.8468 106.855 58.9469C106.28 59.1503 105.756 59.4765 105.171 59.6605C101.898 60.6777 95.9885 60.1642 92.8915 58.6111C92.3034 58.3172 91.1976 57.6908 91.1081 57.003C91.0442 56.509 91.2072 55.6501 91.3382 55.156C92.3098 51.5008 95.2054 50.4029 98.6572 50.1414C100.044 50.038 101.607 50.1737 102.969 50.0477C103.678 49.9831 103.755 49.1404 104.059 48.5914C104.902 47.0673 106.305 45.6756 107.916 45.004C110.713 43.8383 112.333 44.7909 112.854 47.7261C112.902 48.0038 112.816 48.2492 112.969 48.5559C113.468 49.5537 114.318 48.6851 114.925 48.3912C115.897 47.9198 117.846 47.4258 118.904 47.5807C119.243 47.6324 119.649 47.9327 119.7 48.2911C119.917 49.7797 118.259 51.433 117.431 52.5308C117.146 53.2735 117.578 53.8999 117.782 54.5845C118.655 57.5294 119.4 60.8036 119.978 63.8292C120.63 67.2455 120.879 70.5326 122.656 73.6228L124.577 75.7088L124.584 75.7055Z" fill="#31CA29"/>
<path d="M76.3484 81.7664C76.3835 81.7568 76.6456 81.4791 76.6648 81.4209C76.6935 81.3176 76.7575 80.8978 76.767 80.7687C76.9332 78.8959 76.7095 76.9197 76.8597 75.0856C76.946 74.0394 77.3647 73.3032 78.429 73.0707C78.7134 73.0093 79.3495 72.9319 79.6339 72.9545C80.9187 73.0513 81.542 73.7004 81.6506 74.992C81.8328 77.1716 81.51 79.8968 81.363 82.0958C81.168 84.96 80.7813 88.0243 80.8932 90.911C80.9027 91.1306 81.0114 91.2985 80.9954 91.573C80.9379 92.4933 80.2539 93.0099 79.423 93.2069C78.6815 93.3845 77.5852 93.3586 76.9268 92.9292C76.5497 92.6838 76.3068 92.1768 76.2301 91.7409C75.9808 90.3072 76.2045 88.8283 76.3004 87.3979C76.3164 87.188 76.3643 86.3129 76.0703 86.3129H73.4463C73.424 86.3129 73.1491 86.5971 73.1299 86.6584C73.0884 86.8005 73.1363 86.9684 73.1139 87.1169C72.919 88.4182 72.951 89.6937 73.0277 91.0015C73.0948 92.1348 72.8519 92.8452 71.7141 93.1843C70.3973 93.5782 68.3902 93.3651 68.24 91.6699C68.1409 90.5591 68.339 89.4321 68.4285 88.3472C68.7098 84.8534 69.1508 81.4694 68.9047 77.9271C68.8472 77.0779 68.7002 76.2158 68.6235 75.3698C68.5468 74.5238 68.9591 73.9587 69.7197 73.6422C70.5763 73.287 72.267 73.1159 73.0596 73.6358C73.4399 73.8844 73.6253 74.2654 73.6797 74.7143C73.9226 76.7389 73.6349 78.757 73.4911 80.7687C73.4751 80.9753 73.4559 81.7664 73.7308 81.7664H76.3548H76.3484Z" fill="#4B2407"/>
<path d="M111.64 86.7002C111.144 86.6195 110.962 86.7131 110.901 87.2169C110.783 88.1759 110.853 89.8969 110.895 90.9109C110.901 91.1014 111.007 91.2564 111 91.4759C110.984 91.9086 110.636 92.506 110.278 92.7417C109.239 93.4198 106.967 93.31 106.446 92.0023C106.142 91.2402 106.181 89.6709 106.213 88.8217C106.277 86.9618 106.555 85.0857 106.682 83.2322C106.836 81.0204 106.897 78.8117 107.056 76.6031C107.072 76.3673 107.2 76.1252 107.168 75.8636C107.571 75.1393 109.853 74.1076 110.598 73.9294C115.35 72.7864 119.834 75.4987 118.757 80.8492C118.38 82.7285 117.063 84.1105 115.603 85.2278C116.143 86.2966 116.514 87.5075 117.277 88.4503C117.754 89.038 118.425 89.4416 118.917 90.0132C119.182 90.4975 119.013 90.9205 118.764 91.3694C117.802 93.084 116.082 93.6135 114.513 92.2864C112.944 90.9593 112.359 88.6344 111.646 86.7034L111.64 86.7002Z" fill="#4B2407"/>
<path d="M140.117 76.5773C140.913 76.4416 142.3 76.6095 142.814 77.3199C143.457 78.2079 143.063 78.9667 142.533 79.7772C141.638 81.1431 140.353 82.3088 139.394 83.6165C138.937 84.2397 138.621 84.6692 138.758 85.4926C138.851 86.0351 139.915 87.6044 140.292 88.1113C140.702 88.6635 142.114 90.123 142.111 90.7204C142.108 91.3177 141.395 92.3187 140.944 92.6642C140.139 93.281 138.822 93.3294 138.036 92.6642C137.681 92.3672 137.422 91.7407 137.221 91.3081C137.061 90.9658 136.042 88.3987 135.879 88.4019C135.578 88.7571 135.351 89.3093 135.156 89.7549C134.821 90.5202 134.303 92.3769 133.673 92.8031C133.386 92.9968 132.766 93.1163 132.414 93.1421C131.577 93.2003 130.305 93.2552 129.886 92.3736C129.589 91.7472 129.819 91.2984 130.129 90.7365C131.113 88.967 132.564 87.2815 133.568 85.4958C133.916 84.8984 133.581 84.2591 133.319 83.6908C132.651 82.2507 131.554 80.7556 131.002 79.3058C130.727 78.5857 130.573 78.0562 131.42 77.7397C132.363 77.3877 134.118 77.6073 134.882 78.3209C135.3 79.0894 135.514 80.2228 135.933 80.9526C136.412 81.7792 136.841 81.0753 137.125 80.5716C137.838 79.3122 138.519 76.855 140.113 76.5805L140.117 76.5773Z" fill="#4B2407"/>
<path d="M89.8014 90.5752C89.5904 90.5429 89.6511 90.5719 89.5968 90.6979C89.0343 91.9992 87.7239 93.1713 86.2825 93.3166C83.3645 93.6104 82.5463 91.3953 82.3002 88.9187C82.0701 86.6035 82.3226 83.3777 82.6805 81.056C82.8276 80.097 83.144 79.2381 84.2274 79.1154C85.0105 79.025 86.0684 79.0734 86.5637 79.7773C86.845 80.1745 86.8322 80.5781 86.7971 81.0496C86.6532 83.0774 86.0492 85.144 86.2346 87.2138C86.2857 87.7821 86.5893 88.4343 87.2189 88.4924C88.7403 88.6378 89.1589 87.1169 89.3283 85.8802C89.4977 84.6435 89.5489 83.2162 89.616 82.0053C89.6735 80.9559 89.3187 79.829 90.3894 79.1896C91.0958 78.7666 92.1824 78.7343 92.9431 79.0153C93.9882 79.4028 93.8891 80.4877 93.8348 81.437C93.8252 81.5856 93.7485 81.7018 93.7421 81.8148C93.5216 84.792 93.0709 87.7691 94.0393 90.6946C94.2599 91.3598 94.6817 91.7086 94.0681 92.377C93.4161 93.0873 91.6551 93.2456 90.8337 92.7967C90.1369 92.4189 89.779 91.3372 89.8014 90.5719V90.5752Z" fill="#4B2407"/>
<path d="M125.683 77.052C128.952 76.7743 130.49 79.2219 130.212 82.2895C130.103 83.4972 129.013 84.9212 128.048 85.5992C127.083 86.2773 125.446 86.6455 124.251 86.7811C124.027 86.8069 123.318 86.6939 123.273 86.9328C123.26 86.9942 123.452 87.7046 123.503 87.8273C123.896 88.7475 125.021 89.0511 125.945 88.9671C126.424 88.9219 127.194 88.5441 127.613 88.2858C128.032 88.0275 128.406 87.4785 128.991 87.7788C129.77 88.1792 129.627 89.8874 129.32 90.5752C128.482 92.4545 126.405 93.3715 124.439 93.2294C121.659 93.0292 119.943 91.2468 119.434 88.5312C118.639 84.285 120.665 77.4783 125.683 77.052Z" fill="#4B2407"/>
<path d="M100.466 77.1489C103.138 76.8325 105.027 77.8884 105.456 80.6815C105.839 83.1872 104.439 85.6251 101.991 86.3613C101.374 86.5454 100.422 86.7197 99.7825 86.7811C99.0794 86.8521 98.5808 86.484 98.7118 87.4915C98.8045 88.1889 99.4725 88.7346 100.112 88.9187C101.045 89.1899 101.962 88.8703 102.771 88.3794C103.289 88.063 103.627 87.4979 104.308 87.8047C104.951 88.0985 104.947 89.5322 104.784 90.1263C104.228 92.1477 101.965 93.3521 99.9711 93.2262C97.4622 93.068 95.7043 91.828 94.9788 89.3643C93.8251 85.4378 95.6916 77.7043 100.463 77.1425L100.466 77.1489Z" fill="#4B2407"/>
<path d="M97.8648 64.6234C98.0246 64.6944 98.031 64.8042 97.8744 64.8753L96.7238 65.0173C96.0207 65.153 95.9248 65.1949 96.0079 65.9602C96.2923 68.5725 96.7845 71.4366 97.3055 73.9876L97.5516 74.1006C98.21 73.9779 98.8715 73.881 99.5363 73.81L99.7409 74.0005C99.9678 74.4267 100.307 74.7948 100.585 75.1855C100.642 75.2662 100.719 75.2727 100.681 75.4212L95.5732 76.0864C93.2401 76.4674 90.8814 76.7968 88.5419 77.1294C87.7972 77.236 86.9343 77.4588 86.1992 77.5072C85.3874 77.5621 84.9687 77.4232 84.761 76.5837C84.5372 75.6828 84.5021 74.4364 84.3646 73.4806C84.1409 71.9339 83.9172 70.3904 83.7094 68.8405C83.604 68.0526 83.393 67.1679 83.3323 66.3768C83.3099 66.0765 83.4058 65.8117 83.5752 65.5727C83.9811 64.998 84.566 65.1013 85.1637 64.998C87.6534 64.5653 90.1655 64.2101 92.6648 63.8613C93.2593 63.7774 94.3651 63.4771 94.902 63.5966C95.0523 63.6289 95.2344 63.7838 95.407 63.842C96.222 64.1229 97.0434 64.3877 97.8712 64.6202L97.8648 64.6234Z" fill="#FEFAE9"/>
<path d="M99.6447 65.0013L99.8493 65.0562C99.9803 65.5696 100.693 69.1506 100.556 69.3153C100.511 69.3702 100.46 69.4218 100.393 69.4509C98.932 70.594 98.9096 72.4507 99.7374 73.9974C98.9927 73.9651 98.28 74.2234 97.5385 74.2847C96.8833 74.1427 97.0112 73.6777 96.9217 73.1966C96.5382 71.0945 96.2697 68.9665 95.9852 66.8515C95.9149 66.3317 95.4962 65.1789 96.1738 64.9496C96.6308 64.7946 97.3212 64.7559 97.8102 64.7042C97.8901 64.6945 97.8613 64.6235 97.8677 64.6203C98.0435 64.5718 99.3315 64.9464 99.6479 64.9981L99.6447 65.0013Z" fill="#0BA0E4"/>
<path d="M121.771 66.138L120.928 61.3074C121.612 61.5754 122.631 61.7594 123.069 62.4117C123.788 63.4773 123.165 64.756 122.427 65.6181C122.35 65.7085 121.864 66.2413 121.768 66.138H121.771Z" fill="#33842E"/>
<path d="M99.6448 65.0012C99.7982 65.027 99.9868 64.9786 100.156 65.0044C100.568 65.0658 100.994 65.1853 101.419 65.1982C101.681 66.3445 101.809 67.5231 101.984 68.692C101.451 68.8437 101.022 69.0795 100.575 69.4024C100.505 69.4508 100.412 69.4411 100.393 69.454L99.8238 65.5275L99.6416 65.0012H99.6448Z" fill="#FDF9E8"/>
<path d="M120.458 59.415L119.333 54.678C120.09 54.7652 121.062 55.1914 121.532 55.8211C122.305 56.8543 121.673 58.2331 120.928 59.0856C120.858 59.1663 120.548 59.5118 120.458 59.415Z" fill="#33842E"/>
<path d="M123.552 71.9178C123.312 71.9437 123.401 71.9211 123.363 71.7822C123.28 71.4884 123.123 71.1913 123.011 70.9039C122.711 70.1257 122.439 69.3217 122.241 68.5112C123.555 68.6985 124.472 69.8254 123.977 71.1655C123.865 71.4658 123.628 71.6305 123.552 71.9211V71.9178Z" fill="#33842E"/>
<path d="M107.587 50.0573C108.661 49.8603 109.338 50.7644 109.562 51.717C109.802 52.7277 109.591 53.8772 108.68 54.4746C107.098 55.5111 105.976 53.5285 106.12 52.0754C106.197 51.3004 106.753 50.2058 107.59 50.054L107.587 50.0573Z" fill="#4B2407"/>
<path d="M97.7399 54.2227C99.3123 53.8675 98.721 56.1633 97.5385 56.0051C96.6212 55.8824 97.0847 54.3712 97.7399 54.2227Z" fill="#4B2407"/>
<path d="M94.5539 53.7416C94.8192 53.6931 95.2123 54.0451 95.2922 54.2937C95.4201 54.6844 95.0813 55.4626 94.6306 55.5272C93.7933 55.6499 93.56 54.8427 93.9787 54.2066C94.0745 54.0612 94.3941 53.7706 94.5571 53.7416H94.5539Z" fill="#4B2407"/>
<path d="M112.371 77.3394C113.551 77.1973 114.689 77.814 114.829 79.0734C115.031 80.8461 114.363 82.706 112.423 82.9773C112.196 83.0095 111.416 83.0612 111.314 82.9094C111.234 82.79 111.256 81.8568 111.269 81.6211C111.317 80.6588 111.477 79.6578 111.556 78.6923C111.624 77.8915 111.345 77.4621 112.371 77.3362V77.3394Z" fill="#FEFCEE"/>
<path d="M123.65 83.6587C123.574 82.8224 123.65 82.2508 124.168 81.5824C124.686 80.914 125.766 80.294 126.578 80.6525C127.163 80.9108 127.291 81.492 127.208 82.0991C127.112 82.7901 126.038 83.3552 125.431 83.5231C124.855 83.6813 124.229 83.8298 123.65 83.6587Z" fill="#FEFCEE"/>
<path d="M100.93 80.6491C101.624 80.5296 102.4 80.7782 102.531 81.55C102.691 82.4928 101.854 83.1483 101.077 83.4518C100.671 83.6101 99.316 83.9394 98.9836 83.7134C98.8493 83.623 98.8717 82.9513 98.8973 82.7641C99.0091 81.8858 100.067 80.7976 100.93 80.6491Z" fill="#FEFCEE"/>
<path d="M93.3389 65.3082C93.4891 65.292 93.6362 65.2597 93.7896 65.2856C94.058 65.3275 94.3265 65.7505 94.3777 66.0153C94.5247 66.7935 94.563 67.6621 94.6813 68.4532C94.9529 70.255 95.2342 72.0504 95.525 73.8489C95.4419 74.2041 95.3525 74.4301 94.9881 74.5464C94.2786 74.7692 93.3006 74.7111 92.5655 74.9403C91.7153 75.0114 91.5523 74.8596 91.4021 74.0394C91.0314 72.0504 90.8077 69.8191 90.552 67.7945C90.4561 67.0454 89.9607 65.8797 90.9962 65.6795C91.6962 65.5439 92.6422 65.3792 93.3421 65.3049L93.3389 65.3082Z" fill="#FBAB2C"/>
<path d="M90.0662 75.1211C89.9448 75.2405 89.3024 75.3826 89.0946 75.4181C88.5289 75.515 87.6884 75.6636 87.1323 75.7088C86.8638 75.7314 86.4227 75.6894 86.2821 75.4214C86.1862 75.2373 86.0903 74.5818 86.052 74.3267C85.8954 73.2999 85.8155 72.2408 85.6717 71.2075C85.5119 70.0806 85.2018 68.8116 85.1155 67.6976C85.058 66.9743 85.0804 66.6966 85.8187 66.5222C86.6113 66.4802 87.4742 66.1928 88.2477 66.1347C88.9508 66.0798 89.0403 66.661 89.1394 67.2326C89.3791 68.6146 89.5101 70.0967 89.7083 71.4884C89.8425 72.4281 90.0886 73.3935 90.1685 74.3364C90.1845 74.5302 90.1909 74.9919 90.063 75.1211H90.0662Z" fill="#F65928"/>
</g>
<g filter="url(#filter0_d_250_6229)">
<path d="M38.6525 19.9168C38.7813 18.2969 40.8559 17.7114 41.8126 19.025V19.025C43.6174 21.503 46.4146 23.0688 49.4705 23.3118V23.3118C51.0904 23.4406 51.6759 25.5152 50.3623 26.4719V26.4719C47.8843 28.2767 46.3185 31.0739 46.0755 34.1297V34.1297C45.9467 35.7497 43.8721 36.3352 42.9154 35.0216V35.0216C41.1106 32.5436 38.3134 30.9777 35.2575 30.7348V30.7348C33.6376 30.6059 33.0521 28.5313 34.3657 27.5746V27.5746C36.8437 25.7699 38.4095 22.9727 38.6525 19.9168V19.9168Z" fill="#FFE7C2"/>
<path d="M37.8576 19.8537C38.0451 17.4959 41.0648 16.6437 42.4572 18.5556C44.1249 20.8454 46.7097 22.2923 49.5335 22.5169C51.8913 22.7044 52.7435 25.7241 50.8316 27.1165C48.5418 28.7842 47.0949 31.369 46.8703 34.1928C46.6829 36.5506 43.6631 37.4028 42.2707 35.4909C40.603 33.2011 38.0182 31.7542 35.1944 31.5296C32.8366 31.3422 31.9844 28.3224 33.8963 26.93C36.1861 25.2623 37.633 22.6775 37.8576 19.8537Z" stroke="#FFF6E9" stroke-width="1.59459"/>
</g>
<g filter="url(#filter1_d_250_6229)">
<path d="M174.162 88.2411C174.031 86.5642 175.902 85.4837 177.289 86.4362L189.275 94.6702C190.828 95.7371 190.179 98.1634 188.301 98.3125L183.284 98.7106C182.683 98.7582 182.136 99.0741 181.795 99.5704L178.941 103.716C177.873 105.269 175.447 104.618 175.3 102.739L174.162 88.2411Z" fill="#FFE7C2"/>
<path d="M173.166 88.3195C172.969 85.8041 175.775 84.1839 177.855 85.6125L189.842 93.8459C192.171 95.4463 191.197 99.0863 188.38 99.3099L183.363 99.7077C183.1 99.7286 182.858 99.8517 182.687 100.048L182.619 100.137L179.765 104.284C178.163 106.612 174.524 105.635 174.303 102.818L173.166 88.3195Z" stroke="#FFFCF5" stroke-width="2"/>
</g>
<defs>
<filter id="filter0_d_250_6229" x="15.9299" y="2.76708" width="52.8686" height="52.8684" filterUnits="userSpaceOnUse" color-interpolation-filters="sRGB">
<feFlood flood-opacity="0" result="BackgroundImageFix"/>
<feColorMatrix in="SourceAlpha" type="matrix" values="0 0 0 0 0 0 0 0 0 0 0 0 0 0 0 0 0 0 127 0" result="hardAlpha"/>
<feOffset dy="2.17796"/>
<feGaussianBlur stdDeviation="8.05847"/>
<feComposite in2="hardAlpha" operator="out"/>
<feColorMatrix type="matrix" values="0 0 0 0 1 0 0 0 0 0.901961 0 0 0 0 0.8 0 0 0 1 0"/>
<feBlend mode="normal" in2="BackgroundImageFix" result="effect1_dropShadow_250_6229"/>
<feBlend mode="normal" in="SourceGraphic" in2="effect1_dropShadow_250_6229" result="shape"/>
</filter>
<filter id="filter1_d_250_6229" x="153.007" y="67.515" width="58.2904" height="60.809" filterUnits="userSpaceOnUse" color-interpolation-filters="sRGB">
<feFlood flood-opacity="0" result="BackgroundImageFix"/>
<feColorMatrix in="SourceAlpha" type="matrix" values="0 0 0 0 0 0 0 0 0 0 0 0 0 0 0 0 0 0 127 0" result="hardAlpha"/>
<feOffset dy="2.58765"/>
<feGaussianBlur stdDeviation="9.57431"/>
<feComposite in2="hardAlpha" operator="out"/>
<feColorMatrix type="matrix" values="0 0 0 0 1 0 0 0 0 0.901961 0 0 0 0 0.8 0 0 0 1 0"/>
<feBlend mode="normal" in2="BackgroundImageFix" result="effect1_dropShadow_250_6229"/>
<feBlend mode="normal" in="SourceGraphic" in2="effect1_dropShadow_250_6229" result="shape"/>
</filter>
<linearGradient id="paint0_linear_250_6229" x1="104.334" y1="109.59" x2="104.334" y2="136.258" gradientUnits="userSpaceOnUse">
<stop offset="0.43296" stop-color="white"/>
<stop offset="0.710122" stop-color="white" stop-opacity="0.55584"/>
<stop offset="1" stop-color="white" stop-opacity="0"/>
</linearGradient>
<clipPath id="clip0_250_6229">
<rect width="96" height="79" fill="white" transform="translate(57.834 27.5898)"/>
</clipPath>
</defs>
</svg>
