<svg width="213" height="159" viewBox="0 0 213 159" fill="none" xmlns="http://www.w3.org/2000/svg">
<rect x="28.8345" y="23.5898" width="151" height="99" rx="17" fill="white" stroke="#AA8E64" stroke-opacity="0.2" stroke-width="1.2" stroke-linecap="round" stroke-dasharray="6 4"/>
<rect x="33.8345" y="109.59" width="141" height="26.668" fill="url(#paint0_linear_270_169)"/>
<g clip-path="url(#clip0_270_169)">
<path d="M87.0996 97.4001C84.8896 97.4001 82.1396 96.3201 81.6296 91.1701C81.3696 88.5701 81.6596 85.1401 82.0196 82.8101C82.4396 80.0801 84.0496 79.3301 85.3196 79.1901C85.5696 79.1601 85.8396 79.1401 86.1096 79.1401C87.9996 79.1401 88.9896 79.9601 89.4896 80.6601C89.7496 80.2501 90.1296 79.8501 90.6696 79.5301C91.5496 79.0001 92.5096 78.8901 93.1496 78.8901C93.7896 78.8901 94.3996 79.0001 94.9396 79.2001C97.3396 80.0901 97.1996 82.5001 97.1396 83.5201V83.6201C97.1196 83.8601 97.0696 84.0701 97.0296 84.2101C96.9996 84.5801 96.9696 84.9301 96.9396 85.2801C96.7296 87.7001 96.5396 89.9901 97.2396 92.1201C97.2696 92.2001 97.2996 92.2701 97.3296 92.3401C97.5496 92.8201 98.2096 94.3001 96.8396 95.7801C96.0796 96.6101 94.7796 97.1001 93.3496 97.1001C92.7696 97.1001 91.9296 97.0101 91.1796 96.6001C90.9796 96.4901 90.7896 96.3601 90.6196 96.2101C89.7696 96.8401 88.7896 97.2501 87.7896 97.3501C87.5396 97.3701 87.3096 97.3901 87.0796 97.3901L87.0996 97.4001Z" fill="#FFFDF0"/>
<path d="M93.2299 78.6899L90.1799 79.1899C89.5999 79.2899 88.8099 79.4299 88.2199 79.4699C88.1399 79.4699 88.0399 79.4799 87.9399 79.4799C86.8599 79.4799 85.9499 78.9899 85.5199 78.1599C85.3099 77.7599 85.2199 77.2899 85.0999 76.4999C85.0099 75.9199 84.9499 75.3399 84.8799 74.7599C84.8299 74.3199 84.7799 73.8699 84.7199 73.4399C84.6599 73.0399 84.5899 72.6199 84.5099 72.1999C84.3699 71.4499 84.2299 70.6799 84.1699 69.9099C84.0299 68.1699 85.0199 67.4099 86.5999 67.0399C86.9899 66.9899 87.4099 66.9299 87.8999 66.8299C88.4499 66.7199 93.8399 65.8599 94.3099 65.7699C98.8499 64.9599 103.24 66.1399 103.62 68.3299L104.71 76.7999L93.2399 78.6799L93.2299 78.6899Z" fill="#4A260F"/>
<path d="M122.47 70.2001C121.91 70.2001 121.35 69.9601 120.97 69.5501C120.68 69.2301 120.5 68.8401 120.45 68.4301L119.63 63.7101C119.51 63.0001 119.78 62.2701 120.34 61.8201C120.7 61.5201 121.15 61.3701 121.61 61.3701C121.86 61.3701 122.1 61.4201 122.34 61.5101C122.46 61.5601 122.6 61.6001 122.74 61.6501C123.52 61.9001 124.69 62.2901 125.41 63.3601C126.52 65.0101 126.23 67.1101 124.63 68.9801C123.9 69.8301 123.24 70.2101 122.49 70.2101L122.47 70.2001Z" fill="#4A260F"/>
<path d="M121.17 63.4802C120.61 63.4802 120.04 63.2302 119.66 62.8202C119.42 62.5702 119.26 62.2602 119.18 61.9202L118.06 57.1802C117.91 56.5502 118.08 55.8802 118.51 55.3902C118.89 54.9602 119.44 54.7202 120.01 54.7202C120.09 54.7202 120.16 54.7202 120.24 54.7302C121.31 54.8502 122.9 55.4302 123.81 56.6602C125.03 58.2902 124.75 60.5602 123.11 62.4402C122.73 62.8802 122.1 63.4702 121.18 63.4702L121.17 63.4802Z" fill="#4A260F"/>
<path d="M124.1 75.9798C123.12 75.9798 122.26 75.2298 122.08 74.2898C122.05 74.2198 122.02 74.1398 121.98 74.0698C121.92 73.9398 121.87 73.8098 121.82 73.6798C121.44 72.7098 121.17 71.8398 120.97 71.0298C120.81 70.3798 120.98 69.6998 121.43 69.2098C121.81 68.7898 122.35 68.5498 122.91 68.5498C123 68.5498 123.1 68.5498 123.19 68.5698C124.5 68.7598 125.61 69.4698 126.25 70.5398C126.85 71.5498 126.95 72.7498 126.52 73.8998C126.38 74.2798 126.19 74.5498 126.07 74.7098C125.77 75.4498 125.06 75.9398 124.27 75.9598C124.2 75.9598 124.14 75.9598 124.1 75.9598V75.9798Z" fill="#4A260F"/>
<path d="M135.01 75.8499C134.91 75.9599 134.49 75.9999 134.34 75.9499C134.16 75.8999 133.68 75.2399 133.39 75.1999C132.87 75.0999 132.39 75.4599 131.89 75.4899C130.47 75.5799 131.63 74.0599 131.56 73.4499C131.49 72.8499 130.38 72.5399 130.63 71.6599C130.78 71.1399 132.21 71.4799 132.68 71.0799C133.08 70.7399 133.19 69.6499 133.85 69.6499C134.72 69.6499 134.48 71.4199 135.05 71.7199C135.5 71.9599 136.44 71.9699 136.52 72.5999C136.64 73.5199 135.35 73.3999 135.22 73.8399C135.11 74.2099 135.27 74.9099 135.21 75.3399C135.2 75.4199 135.04 75.8099 135 75.8399L135.01 75.8499Z" fill="#4A260F"/>
<path d="M82.0196 59.4C82.2396 59.35 82.5196 59.5 82.6996 59.63C83.0196 59.86 84.2996 61.16 84.5296 61.48C85.1096 62.3 84.3496 63.07 83.5096 62.69C83.0596 62.17 81.2996 60.8 81.3996 60.12C81.4396 59.83 81.7196 59.47 82.0096 59.4H82.0196Z" fill="#4A260F"/>
<path d="M85.4896 57.79C85.7996 57.72 86.1196 57.79 86.3096 58.06C86.5696 58.4 87.0296 59.66 87.1796 60.11C87.3296 60.56 87.4996 61 87.0596 61.37C86.6996 61.66 86.2396 61.63 85.9396 61.27L84.9996 58.91C84.8496 58.48 85.0096 57.89 85.4896 57.79Z" fill="#4A260F"/>
<path d="M105.44 99.8499C109.45 99.7399 113.57 99.9599 117.51 100.39C118.49 100.5 119.72 100.54 120.67 100.79C121.39 100.98 121.88 101.57 121.48 102.32C120.99 103.21 120.04 102.76 119.29 102.67C109.44 101.46 99.2095 101.78 89.4795 103.81C88.8195 103.71 88.3995 103.22 88.4995 102.52C88.5395 102.25 88.8995 101.84 89.1495 101.76C90.3395 101.36 91.8295 101.33 93.0495 100.97C97.1595 100.31 101.28 99.9599 105.44 99.8499Z" fill="#4A260F"/>
<path d="M120.69 80.96C120.56 80.96 120.38 80.94 120.26 80.92C119.46 80.76 118.85 80.1 118.75 79.29C118.51 77.34 117.08 75.8 115.01 75.25C114.15 75.03 113.43 74.87 112.73 74.87C111.98 74.87 111.27 75.04 110.43 75.43C110.05 75.65 109.7 75.88 109.35 76.11C108.3 76.81 107.1 77.6 105.49 77.86L105.4 77.88C105.13 77.93 104.77 77.99 104.39 77.99C104.3 77.99 104.21 77.99 104.13 77.98C102.86 77.88 101.65 77.17 100.9 76.08C100.72 75.82 100.62 75.53 100.58 75.23C100.31 75.02 100.11 74.74 99.98 74.41C99.28 72.55 100.19 70.56 102.14 69.67C102.25 69.62 102.37 69.57 102.48 69.53L102.1 67.08C100.79 66.94 99.47 66.7 98.3 66.4C95.54 65.67 93.08 64.53 91.85 62.82C91.49 62.33 91.4 61.71 91.57 61.15C90.9 60.56 90.53 59.92 90.43 59.2C90.31 58.3 90.58 57.16 90.7 56.71C92.2 51.08 98.01 50.59 99.78 50.45C100.26 50.41 100.77 50.4 101.27 50.4H102.49C102.7 50.4 102.94 50.4 103.17 50.4C103.24 50.24 103.31 50.09 103.38 49.95C104.44 48.03 106 46.38 107.86 45.61C108.84 45.2 109.72 45 110.55 45C111.59 45 114.09 45.48 115.05 48.75C116.07 48.35 117.55 47.98 118.73 47.98C118.98 47.98 119.22 48 119.43 48.03C120.47 48.19 121.61 49.02 121.79 50.32C122.08 52.3 120.71 53.98 119.71 55.21C119.69 55.24 119.67 55.26 119.65 55.29C119.66 55.33 119.68 55.37 119.69 55.4C119.77 55.6 119.85 55.81 119.91 56.02C120.68 58.62 121.42 61.72 122.04 64.99C122.16 65.64 122.27 66.29 122.38 66.93C122.78 69.28 123.15 71.51 124.26 73.53L125.82 75.22C126.02 75.4 126.19 75.63 126.3 75.89C126.7 76.85 126.26 77.95 125.31 78.37C125.29 78.37 125.25 78.39 125.25 78.4C125.08 78.47 124.9 78.53 124.72 78.59C124.62 78.62 124.52 78.65 124.43 78.69C123.61 79.06 122.93 79.49 122.5 79.92C121.92 80.87 121.05 80.97 120.69 80.97V80.96Z" fill="#4A260F"/>
<path d="M120.95 67.5698C120.87 67.7198 120.78 67.8498 120.65 67.9498C120.08 68.4198 119.12 68.2798 118.7 67.6698C118.28 67.0598 118.5 66.1198 119.14 65.7498L119.23 65.7198C119.47 65.6698 119.51 65.6898 119.65 65.7098C119.65 65.7098 119.79 65.7298 119.91 65.7798C120.24 65.9298 120.51 66.0498 120.72 66.2498C120.7 66.1298 120.68 66.0098 120.65 65.8798C120.07 62.8498 119.33 59.5798 118.45 56.6398C118.25 55.9598 117.81 55.3298 118.1 54.5898C118.93 53.4898 120.59 51.8398 120.37 50.3498C120.32 49.9898 119.91 49.6898 119.57 49.6398C118.51 49.4898 116.56 49.9798 115.59 50.4498C114.98 50.7398 114.13 51.6098 113.63 50.6098C113.48 50.2998 113.56 50.0598 113.52 49.7798C113 46.8398 111.38 45.8898 108.58 47.0598C106.97 47.7298 105.57 49.1198 104.72 50.6498C104.42 51.1998 104.34 52.0398 103.63 52.1098C102.27 52.2398 100.71 52.1098 99.3198 52.1998C95.8698 52.4598 92.9698 53.5598 91.9998 57.2098C91.8698 57.6998 91.7098 58.5598 91.7698 59.0598C91.8598 59.7498 92.9698 60.3698 93.5498 60.6698C96.6498 62.2198 102.56 62.7398 105.83 61.7198C106.41 61.5398 106.94 61.2098 107.51 61.0098C107.59 60.9698 107.59 60.9098 107.45 60.8198C107.13 60.6098 107.01 60.4998 107.04 60.1098C107.09 59.4498 107.56 59.4398 108.08 59.6398C108.6 59.8398 109.78 60.8698 109.47 61.4298C109.3 61.7298 108.98 61.8398 108.63 61.9398C108.51 61.9798 108.17 62.1498 108.02 62.2398C104.15 64.3598 99.3398 63.8698 95.2198 62.7998L92.8998 61.9698C94.0998 63.6398 96.1898 64.5598 98.1298 65.0698C100.38 65.6598 103.39 66.0098 105.7 65.8498C106.13 65.8198 106.76 65.5598 107.15 65.7998C107.61 66.0798 107.68 66.7698 107.18 67.0598C106.45 67.3198 105.97 67.3198 105.22 67.3598C105.06 67.3598 104.65 67.3598 104.48 67.3598C104.19 67.3798 103.88 67.3398 103.58 67.3598L104.05 70.3898C105.32 70.1898 106.65 70.2898 107.89 69.8698C108.62 69.6198 109.45 69.1298 109.95 68.5398C110.29 68.1398 110.55 67.2598 111.2 67.4598C111.34 67.4998 111.59 67.8398 111.62 67.9898C111.7 68.3398 111.12 69.1998 110.88 69.4898C110.17 70.3498 108.7 71.1398 107.62 71.4098C105.95 71.8298 104.1 71.5098 102.47 72.2698C101.52 72.7098 100.82 73.6598 101.23 74.7398C101.69 74.7898 102.26 74.5998 102.58 75.0298C102.97 75.5598 102.51 75.9798 101.97 76.0698C102.4 76.6998 103.13 77.1498 103.89 77.2098C104.17 77.2298 104.54 77.1598 104.83 77.1098C106.63 76.8098 107.85 75.6398 109.44 74.7398C111.87 73.5998 113.57 73.8398 115.69 74.3898C118.53 75.1398 120.73 77.3298 121.1 80.3298C121.34 80.3798 121.36 80.1198 121.47 79.9998C122.21 79.1798 123.29 78.5498 124.28 78.0998C124.57 77.9698 124.91 77.8898 125.21 77.7698L123.29 75.6798C121.81 73.0998 121.39 70.3798 120.91 67.5698H120.95Z" fill="#4DB748"/>
<path d="M119.64 65.7099C119.5 65.6899 119.47 65.6699 119.22 65.7199L119.13 65.7499C118.49 66.1199 118.28 67.0599 118.69 67.6699C119.11 68.2799 120.07 68.4099 120.64 67.9499C120.77 67.8499 120.86 67.7099 120.94 67.5699C120.87 67.1299 120.79 66.6899 120.71 66.2499C120.5 66.0499 120.23 65.9299 119.9 65.7799C119.78 65.7299 119.64 65.7099 119.64 65.7099Z" fill="#348440"/>
<path d="M122.7 68.1899L121.86 63.3599C122.54 63.6299 123.56 63.8099 124 64.4599C124.72 65.5299 124.1 66.7999 123.36 67.6699C123.28 67.7599 122.8 68.2899 122.7 68.1899Z" fill="#348440"/>
<path d="M121.45 61.3401L120.33 56.6001C121.09 56.6901 122.06 57.1101 122.53 57.7401C123.3 58.7701 122.67 60.1501 121.93 61.0001C121.86 61.0801 121.55 61.4301 121.46 61.3301L121.45 61.3401Z" fill="#348440"/>
<path d="M124.69 74.12C124.6 74.22 124.54 74.12 124.5 73.98C124.42 73.69 124.26 73.39 124.15 73.1C123.85 72.32 123.58 71.52 123.38 70.71C124.69 70.9 125.61 72.02 125.12 73.36C125.01 73.66 124.92 73.79 124.7 74.12H124.69Z" fill="#348440"/>
<path d="M90.7399 77.1698C90.6199 77.2898 89.9799 77.4298 89.7699 77.4698C89.1999 77.5698 88.3599 77.7198 87.8099 77.7598C87.5399 77.7798 87.0999 77.7398 86.9599 77.4698C86.8599 77.2898 86.7699 76.6298 86.7299 76.3798C86.5699 75.3498 86.4899 74.2898 86.3499 73.2598C86.1899 72.1298 85.8799 70.8598 85.7899 69.7498C85.7299 69.0298 85.7499 68.7498 86.4899 68.5698C87.2799 68.5298 88.1499 68.2398 88.9199 68.1798C89.6199 68.1298 89.7099 68.7098 89.8099 69.2798C90.0499 70.6598 90.1799 72.1398 90.3799 73.5398C90.5099 74.4798 90.7599 75.4498 90.8399 76.3898C90.8599 76.5798 90.8599 77.0498 90.7299 77.1698H90.7399Z" fill="#F15A2C"/>
<path d="M71.8598 97.4098C69.4798 97.4098 67.7498 95.9998 67.5698 93.8998C67.4798 92.8798 67.5798 91.8998 67.6798 91.0398C67.7098 90.7698 67.7398 90.4998 67.7598 90.2398C67.8098 89.5598 67.8798 88.8698 67.9398 88.1898C68.1898 85.4298 68.4198 82.8098 68.2398 80.1198C68.2098 79.6798 68.1498 79.2398 68.0998 78.7998C68.0498 78.3998 67.9998 77.9998 67.9598 77.6098C67.8098 75.9298 68.6698 74.5298 70.2798 73.8598C71.0198 73.5498 72.0098 73.3698 72.9298 73.3698C73.9598 73.3698 74.8198 73.5898 75.4898 74.0298C75.9798 74.3498 76.3698 74.7798 76.6298 75.2998C77.1398 74.1998 78.0798 73.4598 79.3398 73.1798C79.7198 73.0998 80.3898 73.0098 80.8498 73.0098C80.9498 73.0098 81.0398 73.0098 81.1198 73.0198C83.3698 73.1898 84.7798 74.5998 84.9698 76.8798C85.1298 78.7298 84.9498 80.8698 84.7998 82.7598C84.7598 83.2898 84.7198 83.7998 84.6798 84.2898C84.6298 85.0598 84.5598 85.8498 84.4998 86.6398C84.3298 88.6898 84.1498 90.8098 84.2098 92.7698C84.2698 92.9998 84.3398 93.3298 84.3098 93.7498C84.2098 95.4498 83.0198 96.7798 81.1998 97.2098C80.7698 97.3098 80.2898 97.3698 79.8098 97.3698C79.0898 97.3698 78.0398 97.2498 77.1498 96.6598C76.6498 96.3398 76.2398 95.8498 75.9498 95.2798C75.4198 96.3698 74.4698 96.8998 73.5998 97.1598C73.0498 97.3298 72.4398 97.4098 71.8598 97.4098Z" fill="#FFFDF0"/>
<path d="M115.24 71.8502C115.89 71.7202 116.57 72.0502 117 72.5602C117.3 72.9102 117.5 73.4302 117.27 73.8302C117.05 74.2002 116.56 74.2902 116.14 74.3202C115.76 74.3402 115.37 74.3402 115.01 74.2202C114.5 74.0502 114.09 73.6602 114.18 73.1102C114.27 72.5202 114.63 71.9902 115.25 71.8602L115.24 71.8502Z" fill="#348440"/>
<path d="M133.05 97.2201C130.79 97.2201 129.82 96.1701 129.39 95.2801C128.64 93.7101 129.32 92.4801 129.69 91.8201C130.24 90.8301 130.9 89.9001 131.53 89.0001C132.05 88.2701 132.54 87.5701 132.95 86.8801C132.92 86.8101 132.81 86.5801 132.81 86.5801C132.56 86.0501 132.22 85.4701 131.87 84.8501C131.35 83.9601 130.81 83.0401 130.44 82.0701C130.23 81.5201 129.84 80.4901 130.33 79.4201C130.54 78.9501 131.01 78.3001 132.03 77.9201C132.55 77.7301 133.15 77.6301 133.81 77.6301C134.37 77.6301 136.29 77.7201 137.56 78.9101C137.68 79.0201 137.78 79.1401 137.86 79.2701C138.52 78.1201 139.46 76.9901 140.96 76.6801C141 76.6701 141.05 76.6601 141.09 76.6501C141.37 76.6001 141.67 76.5801 141.98 76.5801C142.59 76.5801 144.66 76.7001 145.74 78.1901C147.24 80.2701 145.99 82.1901 145.51 82.9201C144.93 83.8001 144.25 84.5701 143.6 85.3101C143.13 85.8401 142.68 86.3501 142.31 86.8501C142.23 86.9601 142.13 87.1001 142.06 87.2001C142.28 87.6201 142.83 88.4801 143.2 88.9701C143.29 89.0901 143.43 89.2501 143.58 89.4301C144.69 90.7401 145.42 91.6701 145.41 92.7801C145.41 94.1701 144.24 95.7001 143.46 96.3001C142.71 96.8801 141.75 97.1901 140.75 97.1901C139.73 97.1901 138.77 96.8501 138.04 96.2401C137.68 95.9401 137.42 95.5801 137.21 95.2101C136.91 95.7601 136.56 96.1901 136.09 96.5101C135.3 97.0401 134.18 97.1601 133.86 97.1901C133.6 97.2101 133.32 97.2201 133.03 97.2201H133.05Z" fill="#FFFDF0"/>
<path d="M109.99 97.2002C108.06 97.2002 106.5 96.2802 105.9 94.7902C105.57 93.9502 105.45 92.7602 105.53 90.8002C105.57 89.6502 105.69 88.5002 105.8 87.3802C105.88 86.6302 105.95 85.8902 106 85.1402C106.07 84.0802 106.12 83.0202 106.18 81.9702C106.24 80.8202 106.29 79.6602 106.38 78.5102C106.39 78.3202 106.38 78.0802 106.43 77.8702C106.49 77.4002 106.58 77.2302 106.74 76.9402C107.74 75.1402 111.42 74.0402 111.45 74.0302C112.31 73.8202 113.19 73.7202 114.04 73.7202C116.72 73.7202 119.11 74.7602 120.6 76.5802C122.04 78.3402 122.55 80.7202 122.03 83.2902C121.63 85.2802 120.49 86.7502 119.36 87.8202C119.6 88.3602 119.84 88.8702 120.14 89.2302C120.27 89.3902 120.5 89.5802 120.73 89.7802C121.04 90.0502 121.4 90.3502 121.74 90.7402C121.83 90.8502 121.91 90.9602 121.98 91.0802C122.81 92.5902 122.07 93.9302 121.82 94.3702C120.86 96.0902 119.33 97.0702 117.64 97.0702C116.55 97.0702 115.47 96.6502 114.53 95.8502C114.28 95.6402 114.05 95.4102 113.83 95.1702C113.54 95.6902 113.14 96.1502 112.69 96.4502C111.96 96.9302 111 97.1902 109.98 97.1902L109.99 97.2002Z" fill="#FFFDF0"/>
<path d="M126.15 97.2998C125.97 97.2998 125.79 97.2998 125.61 97.2798C122.03 97.0198 119.48 94.6598 118.78 90.9598C118.12 87.4498 119.11 83.0898 121.18 80.3698C122.65 78.4298 124.61 77.3098 126.82 77.1198C127.05 77.0998 127.27 77.0898 127.49 77.0898C129.27 77.0898 130.8 77.7298 131.9 78.9298C133.15 80.2998 133.72 82.2898 133.52 84.5298C133.39 85.9298 132.57 87.3098 131.63 88.3098C133.28 89.5398 133.02 92.1898 132.46 93.4498C131.42 95.7898 128.94 97.2998 126.15 97.2998Z" fill="#FFFDF0"/>
<path d="M101.58 97.2899C101.44 97.2899 101.3 97.2899 101.17 97.2799C97.7396 97.0599 95.3296 95.1799 94.3796 91.9899C93.3996 88.6699 94.1996 83.8399 96.2396 80.7599C97.6096 78.6899 99.4496 77.4599 101.55 77.2099C101.61 77.2099 101.67 77.1999 101.73 77.1999C102.05 77.1699 102.36 77.1499 102.67 77.1499C105.97 77.1499 108.25 79.1299 108.76 82.4299C109.1 84.6799 108.41 86.8399 107.01 88.3699C108.37 89.4599 108.32 91.6799 108.04 92.6999C107.21 95.7099 104.17 97.2799 101.59 97.2799L101.58 97.2899Z" fill="#FFFDF0"/>
<path d="M77.6698 83.82C77.6698 83.82 77.9698 83.53 77.9898 83.47C78.0198 83.37 78.0798 82.95 78.0898 82.82C78.2598 80.95 78.0298 78.97 78.1798 77.14C78.2698 76.09 78.6798 75.36 79.7498 75.13C80.0298 75.07 80.6698 74.99 80.9498 75.01C82.2298 75.11 82.8598 75.76 82.9698 77.05C83.1498 79.23 82.8298 81.95 82.6798 84.15C82.4898 87.01 82.0998 90.08 82.2098 92.97C82.2098 93.19 82.3298 93.36 82.3098 93.63C82.2498 94.55 81.5698 95.07 80.7398 95.26C79.9998 95.44 78.8998 95.41 78.2398 94.98C77.8598 94.73 77.6198 94.23 77.5398 93.79C77.2898 92.36 77.5098 90.88 77.6098 89.45C77.6298 89.24 77.6698 88.36 77.3798 88.36H74.7598C74.7598 88.36 74.4598 88.64 74.4398 88.71C74.3998 88.85 74.4398 89.02 74.4198 89.17C74.2298 90.47 74.2598 91.75 74.3298 93.05C74.3998 94.18 74.1498 94.89 73.0198 95.23C71.6998 95.62 69.6998 95.41 69.5498 93.72C69.4498 92.61 69.6498 91.48 69.7398 90.4C70.0198 86.91 70.4598 83.52 70.2198 79.98C70.1598 79.13 70.0198 78.27 69.9398 77.42C69.8598 76.57 70.2798 76.01 71.0398 75.69C71.8998 75.33 73.5898 75.16 74.3798 75.69C74.7598 75.94 74.9498 76.32 74.9998 76.77C75.2398 78.79 74.9598 80.81 74.8098 82.82C74.7898 83.03 74.7698 83.82 75.0498 83.82H77.6698Z" fill="#4A260F"/>
<path d="M141.43 78.63C142.23 78.49 143.61 78.66 144.13 79.37C144.77 80.26 144.38 81.02 143.85 81.83C142.95 83.2 141.67 84.36 140.71 85.67C140.25 86.29 139.94 86.72 140.07 87.55C140.16 88.09 141.23 89.66 141.6 90.17C142.01 90.72 143.42 92.18 143.42 92.78C143.42 93.38 142.7 94.38 142.25 94.72C141.45 95.34 140.13 95.39 139.34 94.72C138.99 94.42 138.73 93.8 138.52 93.36C138.36 93.02 137.34 90.45 137.18 90.45C136.88 90.81 136.65 91.36 136.46 91.8C136.12 92.57 135.61 94.42 134.98 94.85C134.69 95.04 134.07 95.16 133.72 95.19C132.88 95.25 131.61 95.3 131.19 94.42C130.89 93.79 131.12 93.34 131.43 92.78C132.41 91.01 133.86 89.32 134.87 87.54C135.22 86.94 134.88 86.3 134.62 85.74C133.95 84.3 132.86 82.8 132.3 81.35C132.03 80.63 131.87 80.1 132.72 79.78C133.66 79.43 135.42 79.65 136.18 80.36C136.6 81.13 136.81 82.26 137.23 82.99C137.71 83.82 138.14 83.11 138.42 82.61C139.13 81.35 139.81 78.89 141.41 78.62L141.43 78.63Z" fill="#4A260F"/>
<path d="M91.1196 92.6299C90.9096 92.5999 90.9696 92.6299 90.9196 92.7499C90.3596 94.0499 89.0496 95.2199 87.6096 95.3699C84.6896 95.6599 83.8696 93.4499 83.6296 90.9699C83.3996 88.6499 83.6496 85.4299 84.0096 83.1099C84.1596 82.1499 84.4696 81.2899 85.5596 81.1699C86.3396 81.0799 87.3996 81.1299 87.8996 81.8299C88.1796 82.2299 88.1696 82.6299 88.1296 83.0999C87.9896 85.1299 87.3796 87.1899 87.5696 89.2599C87.6196 89.8299 87.9196 90.4799 88.5496 90.5399C90.0696 90.6899 90.4896 89.1599 90.6596 87.9299C90.8296 86.6899 90.8796 85.2699 90.9496 84.0599C91.0096 83.0099 90.6496 81.8799 91.7196 81.2399C92.4296 80.8199 93.5096 80.7799 94.2696 81.0699C95.3196 81.4599 95.2196 82.5399 95.1596 83.4899C95.1596 83.6399 95.0696 83.7499 95.0696 83.8699C94.8496 86.8499 94.3996 89.8199 95.3696 92.7499C95.5896 93.4199 96.0096 93.7599 95.3996 94.4299C94.7496 95.1399 92.9896 95.2999 92.1696 94.8499C91.4696 94.4699 91.1196 93.3899 91.1396 92.6299H91.1196Z" fill="#4A260F"/>
<path d="M120.23 92.0701C119.74 91.5001 119.07 91.0901 118.59 90.5101C117.83 89.5701 117.46 88.3602 116.92 87.2902C118.38 86.1702 119.7 84.7901 120.07 82.9101C121.15 77.5601 116.66 74.8501 111.91 75.9901C111.17 76.1701 108.88 77.2001 108.48 77.9201C108.37 78.2001 108.38 78.4201 108.37 78.6601C108.21 80.8701 108.15 83.0802 108 85.2902C107.87 87.1402 107.6 89.0202 107.53 90.8802C107.5 91.7302 107.46 93.3002 107.76 94.0602C108.28 95.3702 110.55 95.4801 111.59 94.8001C111.95 94.5601 112.3 93.9701 112.31 93.5301C112.31 93.3101 112.21 93.1601 112.21 92.9601C112.17 91.9501 112.1 90.2302 112.21 89.2702C112.27 88.7702 112.45 88.6701 112.95 88.7501C113.66 90.6801 114.25 93.0101 115.82 94.3401C117.39 95.6701 119.11 95.1401 120.07 93.4201C120.32 92.9701 120.49 92.5502 120.22 92.0602L120.23 92.0701ZM113.74 85.0301C113.51 85.0601 112.73 85.1101 112.63 84.9601C112.55 84.8401 112.57 83.9101 112.59 83.6701C112.64 82.7101 112.8 81.7102 112.88 80.7402C112.95 79.9402 112.67 79.5102 113.7 79.3802C114.88 79.2402 116.02 79.8601 116.16 81.1201C116.36 82.8901 115.69 84.7502 113.75 85.0202L113.74 85.0301Z" fill="#4A260F"/>
<path d="M125.57 88.83C126.77 88.69 128.4 88.33 129.37 87.65C130.33 86.97 131.43 85.55 131.53 84.34C131.81 81.27 130.27 78.82 127 79.1C121.98 79.53 119.96 86.33 120.75 90.58C121.26 93.3 122.97 95.08 125.76 95.28C127.73 95.42 129.8 94.51 130.64 92.63C130.95 91.94 131.09 90.23 130.31 89.83C129.73 89.53 129.35 90.08 128.93 90.34C128.51 90.6 127.74 90.98 127.26 91.02C126.34 91.1 125.21 90.8 124.82 89.88C124.77 89.76 124.58 89.05 124.59 88.99C124.63 88.75 125.34 88.86 125.57 88.84V88.83ZM125.48 83.64C126 82.97 127.08 82.35 127.89 82.71C128.48 82.97 128.6 83.55 128.52 84.16C128.42 84.85 127.35 85.42 126.74 85.58C126.16 85.74 125.54 85.89 124.96 85.72C124.88 84.88 124.96 84.31 125.48 83.64Z" fill="#4A260F"/>
<path d="M105.62 89.8601C104.94 89.5501 104.6 90.1201 104.08 90.4301C103.27 90.9201 102.35 91.2401 101.42 90.9701C100.78 90.7901 100.11 90.2401 100.02 89.5401C99.8896 88.5301 100.39 88.9001 101.09 88.8301C101.73 88.7701 102.68 88.5901 103.3 88.4101C105.75 87.6701 107.15 85.2401 106.76 82.7301C106.33 79.9401 104.44 78.8801 101.77 79.2001C96.9996 79.7601 95.1296 87.4901 96.2896 91.4201C97.0196 93.8801 98.7696 95.1201 101.28 95.2801C103.27 95.4101 105.54 94.2001 106.09 92.1801C106.25 91.5901 106.26 90.1501 105.61 89.8601H105.62ZM100.21 84.8201C100.32 83.9401 101.38 82.8501 102.24 82.7101C102.93 82.5901 103.71 82.8401 103.84 83.6101C104 84.5501 103.16 85.2101 102.39 85.5101C101.98 85.6701 100.63 86.0001 100.3 85.7701C100.17 85.6801 100.19 85.0101 100.21 84.8201Z" fill="#4A260F"/>
<path d="M132.69 85.8901L130.96 88.6501L132.21 89.5801L133.81 87.4301L132.69 85.8901Z" fill="#FFFDF0"/>
<path d="M94.2 67.3598C94.35 67.3398 94.5 67.3098 94.65 67.3398C94.92 67.3798 95.19 67.7998 95.24 68.0698C95.39 68.8498 95.43 69.7198 95.54 70.5098C95.81 72.3098 96.09 74.1098 96.38 75.9098C96.43 76.2498 96.21 76.4898 95.84 76.6098C95.13 76.8298 94.26 76.9498 93.42 76.9998C92.57 77.0698 92.41 76.9198 92.26 76.0998C91.89 74.1098 91.67 71.8798 91.41 69.8598C91.31 69.1098 90.82 67.9498 91.85 67.7398C92.55 67.5998 93.5 67.4398 94.2 67.3698V67.3598Z" fill="#FBAB2A"/>
<path d="M100.55 67.0502L100.68 67.1102C100.81 67.6202 101.52 71.2002 101.39 71.3702C101.35 71.4202 101.29 71.4802 101.23 71.5102C99.77 72.6502 99.75 74.5102 100.57 76.0602C99.83 76.0302 99.13 76.4002 98.37 76.3502C97.82 76.1802 97.86 75.5902 97.75 75.2602C97.37 73.1602 97.1 71.0302 96.81 68.9102C96.74 68.3902 96.32 67.2402 97 67.0102C97.46 66.8602 98.15 66.8202 98.64 66.7602C98.72 66.7602 99.01 66.7402 99.02 66.7402C99.87 66.7702 100.29 66.9102 100.46 67.0102L100.55 67.0602V67.0502Z" fill="#239FD9"/>
<path d="M97.57 56.8602C98.29 56.7602 98.62 57.5002 98.24 58.1002C97.98 58.6902 97.08 58.9002 96.81 58.3702C96.57 57.8702 96.9 57.1002 97.4 56.9002L97.57 56.8602Z" fill="#4A260F"/>
<path d="M94.9199 55.71C95.6799 55.87 95.6799 57.14 94.9399 57.43C93.6599 57.93 93.6799 55.81 94.7599 55.71H94.9199Z" fill="#4A260F"/>
<path d="M108.719 51.3183C110.051 51.0817 110.898 52.1526 111.172 53.2733C111.471 54.4563 111.209 55.8136 110.076 56.5109C108.109 57.7313 106.714 55.4027 106.888 53.6842C106.988 52.7752 107.673 51.4801 108.719 51.3058V51.3183Z" fill="#4A260F"/>
<path d="M108.633 52.4504C109.079 52.3852 109.361 52.6676 109.448 52.9608C109.546 53.2649 109.459 53.6233 109.079 53.808C108.427 54.1229 107.96 53.5147 108.025 53.0694C108.058 52.8305 108.286 52.4938 108.633 52.4504Z" fill="white"/>
<path d="M116.64 69.3898C117.08 68.3798 115.44 67.5898 114.99 68.5798C114.5 69.6498 116.16 70.4898 116.64 69.3898Z" fill="#348440"/>
<path d="M118.32 71.42C118.67 71.86 119.39 71.95 119.84 71.6C120.16 71.35 120.33 70.92 120.25 70.52C120.18 70.15 119.91 69.83 119.55 69.7C118.54 69.33 117.65 70.57 118.32 71.41V71.42Z" fill="#348440"/>
<path d="M119.43 75.1201C119.53 75.4401 119.73 75.7501 120.03 75.9101C120.49 76.1601 121.11 76.0101 121.44 75.6001C122.19 74.6801 121.38 73.6001 120.53 73.1501C119.31 72.5001 119.2 74.3501 119.44 75.1201H119.43Z" fill="#348440"/>
<path d="M118.93 64.1298C118.99 63.9198 119.29 63.8198 119.46 63.9498C119.63 64.0798 119.61 64.3998 119.42 64.5098C119.23 64.6198 118.95 64.4798 118.92 64.2598" fill="#348440"/>
<path d="M116.61 66.7201C116.67 66.5101 116.97 66.4101 117.14 66.5401C117.31 66.6701 117.29 66.9901 117.1 67.1001C116.91 67.2101 116.63 67.0701 116.6 66.8501" fill="#348440"/>
</g>
<g filter="url(#filter0_d_270_169)">
<path d="M38.652 19.9166C38.7808 18.2966 40.8554 17.7111 41.8122 19.0247V19.0247C43.6169 21.5027 46.4141 23.0686 49.47 23.3116V23.3116C51.0899 23.4404 51.6754 25.515 50.3618 26.4717V26.4717C47.8838 28.2764 46.318 31.0736 46.075 34.1295V34.1295C45.9462 35.7495 43.8716 36.3349 42.9149 35.0213V35.0213C41.1101 32.5434 38.3129 30.9775 35.2571 30.7345V30.7345C33.6371 30.6057 33.0516 28.5311 34.3652 27.5744V27.5744C36.8432 25.7697 38.4091 22.9725 38.652 19.9166V19.9166Z" fill="#FFE7C2"/>
<path d="M37.8571 19.8534C38.0446 17.4957 41.0643 16.6434 42.4567 18.5553C44.1244 20.8452 46.7092 22.2921 49.533 22.5166C51.8908 22.7041 52.743 25.7238 50.8311 27.1163C48.5413 28.784 47.0944 31.3688 46.8698 34.1926C46.6824 36.5504 43.6627 37.4026 42.2702 35.4907C40.6025 33.2009 38.0177 31.7539 35.1939 31.5294C32.8361 31.3419 31.9839 28.3222 33.8958 26.9297C36.1856 25.262 37.6325 22.6773 37.8571 19.8534Z" stroke="#FFF6E9" stroke-width="1.59459"/>
</g>
<g filter="url(#filter1_d_270_169)">
<path d="M174.162 88.2411C174.031 86.5642 175.902 85.4837 177.289 86.4362L189.275 94.6702C190.828 95.7371 190.179 98.1634 188.301 98.3125L183.284 98.7106C182.683 98.7582 182.136 99.0741 181.795 99.5704L178.941 103.716C177.873 105.269 175.447 104.618 175.3 102.739L174.162 88.2411Z" fill="#FFE7C2"/>
<path d="M173.166 88.3195C172.969 85.8041 175.775 84.1839 177.855 85.6125L189.842 93.8459C192.171 95.4463 191.197 99.0863 188.38 99.3099L183.363 99.7077C183.1 99.7286 182.858 99.8517 182.687 100.048L182.619 100.137L179.765 104.284C178.163 106.612 174.524 105.635 174.303 102.818L173.166 88.3195Z" stroke="#FFFCF5" stroke-width="2"/>
</g>
<defs>
<filter id="filter0_d_270_169" x="15.9295" y="2.7666" width="52.8681" height="52.8686" filterUnits="userSpaceOnUse" color-interpolation-filters="sRGB">
<feFlood flood-opacity="0" result="BackgroundImageFix"/>
<feColorMatrix in="SourceAlpha" type="matrix" values="0 0 0 0 0 0 0 0 0 0 0 0 0 0 0 0 0 0 127 0" result="hardAlpha"/>
<feOffset dy="2.17796"/>
<feGaussianBlur stdDeviation="8.05847"/>
<feComposite in2="hardAlpha" operator="out"/>
<feColorMatrix type="matrix" values="0 0 0 0 1 0 0 0 0 0.901961 0 0 0 0 0.8 0 0 0 1 0"/>
<feBlend mode="normal" in2="BackgroundImageFix" result="effect1_dropShadow_270_169"/>
<feBlend mode="normal" in="SourceGraphic" in2="effect1_dropShadow_270_169" result="shape"/>
</filter>
<filter id="filter1_d_270_169" x="153.007" y="67.5147" width="58.2899" height="60.8094" filterUnits="userSpaceOnUse" color-interpolation-filters="sRGB">
<feFlood flood-opacity="0" result="BackgroundImageFix"/>
<feColorMatrix in="SourceAlpha" type="matrix" values="0 0 0 0 0 0 0 0 0 0 0 0 0 0 0 0 0 0 127 0" result="hardAlpha"/>
<feOffset dy="2.58765"/>
<feGaussianBlur stdDeviation="9.57431"/>
<feComposite in2="hardAlpha" operator="out"/>
<feColorMatrix type="matrix" values="0 0 0 0 1 0 0 0 0 0.901961 0 0 0 0 0.8 0 0 0 1 0"/>
<feBlend mode="normal" in2="BackgroundImageFix" result="effect1_dropShadow_270_169"/>
<feBlend mode="normal" in="SourceGraphic" in2="effect1_dropShadow_270_169" result="shape"/>
</filter>
<linearGradient id="paint0_linear_270_169" x1="104.334" y1="109.59" x2="104.334" y2="136.258" gradientUnits="userSpaceOnUse">
<stop offset="0.43296" stop-color="white"/>
<stop offset="0.710122" stop-color="white" stop-opacity="0.55584"/>
<stop offset="1" stop-color="white" stop-opacity="0"/>
</linearGradient>
<clipPath id="clip0_270_169">
<rect width="78.94" height="58.81" fill="white" transform="translate(67.5298 45)"/>
</clipPath>
</defs>
</svg>
